Coordinates
version=1
nRows=9
nColumns=24
inDegrees=yes

Units are S.I. units (second, meters, Newtons, ...)
Angles are in degrees.

endheader
time	pelvis_tilt	pelvis_list	pelvis_rotation	pelvis_tx	pelvis_ty	pelvis_tz	hip_flexion_r	hip_adduction_r	hip_rotation_r	knee_angle_r	ankle_angle_r	subtalar_angle_r	mtp_angle_r	hip_flexion_l	hip_adduction_l	hip_rotation_l	knee_angle_l	ankle_angle_l	subtalar_angle_l	mtp_angle_l	lumbar_extension	lumbar_bending	lumbar_rotation
      2.13500000	     14.26882994	     -1.61630820	      3.43825909	      0.92462326	      0.91285332	      0.30307273	     10.55795017	      2.65260601	     -5.00823548	    -26.15341927	     12.46267873	      0.57475283	     33.58724208	    -15.96255542	     -4.32413008	     -1.20805580	    -54.75025440	     10.64500004	     -0.18971190	     50.89111152	    -27.59205702	      6.82062527	      4.29046774
      2.14000000	     13.61357985	     -2.19643215	      3.79953687	      0.93046013	      0.91230899	      0.30330679	     10.89093986	      3.34386458	     -5.03998453	    -26.13200615	     12.84709807	     -0.00361526	     33.20918003	    -13.87279222	     -4.92649864	     -0.66008539	    -57.23396468	     11.04183334	     -0.84104421	     48.76133893	    -26.89658048	      7.61023537	      4.24368491
      2.14500000	     13.11734738	     -2.82170797	      4.19291253	      0.93644833	      0.91207444	      0.30368791	     10.98562782	      4.09100148	     -5.14110999	    -25.97943126	     13.12714139	     -0.53769085	     32.90157808	    -12.00280804	     -5.57202688	     -0.05426886	    -59.49756299	     11.68250884	     -1.20657813	     48.05097377	    -26.33473086	      8.43992627	      4.20403607
      2.15000000	     12.70438461	     -3.27891680	      4.50460249	      0.94228081	      0.91208352	      0.30401670	     10.99861698	      4.64585171	     -5.18694018	    -25.83148677	     13.37143226	     -0.97699332	     32.42925926	    -10.24776536	     -5.96840067	      0.49788078	    -61.59017529	     12.17484032	     -1.56157575	     47.52955425	    -25.88291555	      9.07314767	      4.14002976
      2.15500000	     12.30884937	     -3.65236836	      4.75899576	      0.94801677	      0.91228053	      0.30417545	     10.99525241	      5.07075653	     -5.26414531	    -25.69942515	     13.62323744	     -1.19824313	     31.85447903	     -8.57263727	     -6.21669400	      1.01623956	    -63.44506007	     12.52917533	     -2.10821024	     47.28822063	    -25.45731197	      9.62405525	      4.13479760
      2.16000000	     11.97862487	     -3.96624690	      5.04738601	      0.95371868	      0.91271332	      0.30443463	     10.89362175	      5.43111629	     -5.39907121	    -25.52476231	     13.85686326	     -1.18327557	     31.27681791	     -6.96295778	     -6.43677741	      1.52477069	    -65.17752400	     12.75916781	     -2.63428795	     46.93953798	    -25.11453867	     10.11004744	      4.03730031
      2.16500000	     11.76829061	     -4.26591443	      5.26790883	      0.95953903	      0.91335473	      0.30491657	     10.60771053	      5.81363017	     -5.50214241	    -25.25344712	     14.05980993	     -1.23770154	     30.89018556	     -5.52441966	     -6.65948520	      1.94789283	    -66.75376650	     12.97097114	     -3.18321518	     46.67935765	    -24.89682836	     10.53640697	      3.90762223
      2.17000000	     11.50692812	     -4.52414429	      5.46688858	      0.96536986	      0.91394324	      0.30527724	     10.40824977	      6.11710910	     -5.67705484	    -25.05998917	     14.33296713	     -1.07428917	     30.53776577	     -3.99552876	     -6.85253997	      2.29215921	    -68.29770296	     13.15572223	     -3.48941476	     46.40594481	    -24.61685524	     10.90826045	      3.78871868
      2.17500000	     11.23646352	     -4.76142504	      5.65380560	      0.97113965	      0.91454686	      0.30570893	     10.19289348	      6.40438192	     -5.82675805	    -24.81427776	     14.61287603	     -1.00813348	     30.15785320	     -2.44879657	     -7.04844308	      2.57455545	    -69.74070627	     13.39898426	     -3.58714395	     46.24638418	    -24.32648076	     11.25081396	      3.66005715
